<svg width="405" height="422" viewBox="0 0 405 422" fill="none" xmlns="http://www.w3.org/2000/svg">
<path fill-rule="evenodd" clip-rule="evenodd" d="M366 80.21C366 181.13 366 282.06 366 382.98C339.33 382.98 312.67 382.98 286 382.98C286 341.32 286 299.65 286 257.99C247.72 257.99 209.44 257.99 171.16 257.99C172.07 251.64 176.18 245.21 178.77 239.38C181.96 232.19 185.42 225.13 188.8 218.03C190.54 214.37 191.97 210.38 194.2 206.99C224.77 206.99 255.33 206.99 285.9 206.99C286.59 198.43 285.92 189.58 285.9 180.99C285.85 164.13 285.84 147.26 285.64 130.41C285.36 107.95 288.51 87.72 313.46 81.07C321.28 78.99 329.19 78.74 337.25 78.92C345.2 79.09 358.62 78.82 366 80.21ZM85 207.15C85.78 208.12 86.56 209.08 87.34 210.05C94.19 214.25 99.98 219.95 106.48 224.73C126.66 239.56 146.58 254.48 156.78 278.23C165.31 298.09 163.66 320.13 163.66 341.4C163.66 352.49 162.83 365.74 153.86 373.73C140.29 385.81 121.62 384.21 104.74 383.11C98.32 382.69 91.3 382.89 85 381.79C85 323.58 85 265.36 85 207.15Z" fill="#236545" stroke="#236545" stroke-width="0.25" stroke-linejoin="round"/>
<path fill-rule="evenodd" clip-rule="evenodd" d="M42.46 40.0699C53.42 41.3799 64.62 44.3899 75.08 47.7499C103.14 56.7899 133.51 69.4599 152.61 93.2799C161.11 103.87 167.31 115.49 172.26 128.03C175.78 136.94 178.21 146.72 179.09 156.32C181.13 178.5 178.62 192.78 175.08 214.2C174.52 217.63 172.38 231.83 169.33 232.7C168.12 229.58 168.32 225.5 167.82 222.18C166.96 216.52 165.55 210.6 163.78 205.16C155.45 179.65 143.6 155.76 125.19 135.82C119.89 130.08 114.27 124.89 108.3 119.86C106.49 118.33 103.84 115.33 101.5 114.93C101.01 117.43 105.33 120.75 106.76 122.55C111.55 128.57 115.98 135.27 119.82 141.93C127.58 155.36 134.7 169.02 140.72 183.31C145.76 195.27 149.11 207.94 153.23 220.23C156.16 228.94 160.06 238.48 160.16 247.79C160.19 250.74 160.06 255.92 157.58 257.93C149.45 246.22 144.52 236.02 133.23 226.29C117.01 212.31 97.46 202.8 82.31 187.37C57.99 162.6 45.58 129.46 41.71 95.4699C40.2 82.2199 40.86 68.6199 40.92 55.2999C40.94 51.1199 39.68 43.5199 42.46 40.0699Z" fill="#85C49A" stroke="#85C49A" stroke-width="0.25" stroke-linejoin="round"/>
</svg>
